#N canvas 586 107 626 637 10;
#X declare -lib mrpeach;
#X obj 44 70 unpackOSC;
#X obj 44 31 udpreceive 9100;
#X obj 109 208 hsl 128 15 0 127 0 0 empty empty empty -2 -8 0 10 -262144
-1 -1 0 1;
#X obj 257 68 unpackOSC;
#X obj 323 170 hsl 128 15 0 127 0 0 empty empty empty -2 -8 0 10 -262144
-1 -1 0 1;
#X obj 257 29 udpreceive 9101;
#X obj 48 104 unpack s f;
#X obj 261 102 unpack s f;
#X obj 107 136 * 1.25;
#X obj 320 134 * 1.25;
#X floatatom 253 323 5 0 0 0 - - -;
#X obj 77 391 * 1;
#X obj 135 391 * 2;
#X obj 186 391 * 3;
#X obj 233 387 * 4;
#X obj 283 389 * 5;
#X obj 332 394 * 6;
#X obj 387 394 * 7;
#X obj 441 391 * 8;
#X floatatom 54 431 5 0 0 0 - - -;
#X floatatom 117 431 5 0 0 0 - - -;
#X floatatom 172 435 5 0 0 0 - - -;
#X floatatom 224 432 5 0 0 0 - - -;
#X floatatom 274 432 5 0 0 0 - - -;
#X floatatom 322 428 5 0 0 0 - - -;
#X floatatom 383 429 5 0 0 0 - - -;
#X floatatom 441 430 5 0 0 0 - - -;
#X obj 46 487 osc~;
#X obj 104 488 osc~;
#X obj 170 486 osc~;
#X obj 225 484 osc~;
#X obj 274 480 osc~;
#X obj 324 481 osc~;
#X obj 381 477 osc~;
#X obj 437 478 osc~;
#X obj 37 535 *~ 1;
#X obj 99 533 *~ 0.7;
#X obj 170 532 *~ 0.5;
#X obj 226 527 *~ 0.4;
#X obj 282 531 *~ 0.3;
#X obj 334 530 *~ 0.3;
#X obj 389 533 *~ 0.2;
#X obj 447 529 *~ 0.1;
#X obj 250 664 dac~;
#X obj 264 272 hsl 128 15 0 127 0 0 empty empty empty -2 -8 0 10 -262144
-1 -1 0 1;
#X obj 44 6 import mrpeach;
#X obj 433 23 loadbang;
#X msg 438 66 \; pd dsp 1;
#X obj 250 612 *~ 0.07;
#X connect 0 0 6 0;
#X connect 1 0 0 0;
#X connect 2 0 44 0;
#X connect 3 0 7 0;
#X connect 5 0 3 0;
#X connect 6 1 8 0;
#X connect 7 1 9 0;
#X connect 8 0 2 0;
#X connect 9 0 4 0;
#X connect 10 0 11 0;
#X connect 10 0 12 0;
#X connect 10 0 13 0;
#X connect 10 0 14 0;
#X connect 10 0 15 0;
#X connect 10 0 16 0;
#X connect 10 0 17 0;
#X connect 10 0 18 0;
#X connect 11 0 19 0;
#X connect 12 0 20 0;
#X connect 13 0 21 0;
#X connect 14 0 22 0;
#X connect 15 0 23 0;
#X connect 16 0 24 0;
#X connect 17 0 25 0;
#X connect 18 0 26 0;
#X connect 19 0 27 0;
#X connect 20 0 28 0;
#X connect 21 0 29 0;
#X connect 22 0 30 0;
#X connect 23 0 31 0;
#X connect 24 0 32 0;
#X connect 25 0 33 0;
#X connect 26 0 34 0;
#X connect 27 0 35 0;
#X connect 28 0 36 0;
#X connect 29 0 37 0;
#X connect 30 0 38 0;
#X connect 31 0 39 0;
#X connect 32 0 40 0;
#X connect 33 0 41 0;
#X connect 34 0 42 0;
#X connect 35 0 48 0;
#X connect 36 0 48 0;
#X connect 38 0 48 0;
#X connect 39 0 48 0;
#X connect 40 0 48 0;
#X connect 41 0 48 0;
#X connect 42 0 48 0;
#X connect 44 0 10 0;
#X connect 46 0 47 0;
#X connect 48 0 43 0;
#X connect 48 0 43 1;
